<svg width="240" height="240" viewBox="0 0 240 240" fill="none" xmlns="http://www.w3.org/2000/svg">
<path d="M0 34C0 15.2223 15.2223 0 34 0H206C224.778 0 240 15.2223 240 34V206C240 224.778 224.778 240 206 240H34C15.2223 240 0 224.778 0 206V34Z" fill="white"/>
<path d="M23 56.3343C23 42.8948 33.9324 32 47.4183 32H193.582C207.068 32 218 42.8948 218 56.3343C218 69.7738 207.068 80.6686 193.582 80.6686H47.4183C33.9324 80.6686 23 69.7738 23 56.3343Z" fill="#E63D30"/>
<path d="M23 119.5C23 106.061 33.9324 95.1657 47.4183 95.1657H127.427C140.913 95.1657 151.845 106.061 151.845 119.5C151.845 132.939 140.913 143.834 127.427 143.834H47.4183C33.9324 143.834 23 132.939 23 119.5Z" fill="#E63D30"/>
<path d="M23 182.666C23 169.226 33.9324 158.331 47.4183 158.331C60.9041 158.331 71.8366 169.226 71.8366 182.666C71.8366 196.105 60.9041 207 47.4183 207C33.9324 207 23 196.105 23 182.666Z" fill="#E63D30"/>
</svg>
